{"title":"The.Jungle.Book.2013.DVDRip.XviD-RedBlade","uid":8499751,"size":731542829,"categoryP":"video","categoryS":"movies","magnet":"?xt=urn:btih:1d612679d05bc26f3e08a3f369bbd158ef32b111&amp;dn=The.Jungle.Book.2013.DVDRip.XviD-RedBlade&amp;tr=udp%3A%2F%2Ftracker.openbittorrent.com%3A80&amp;tr=udp%3A%2F%2Fopen.demonii.com%3A1337&amp;tr=udp%3A%2F%2Ftracker.coppersurfer.tk%3A6969&amp;tr=udp%3A%2F%2Fexodus.desync.com%3A6969","seeders":4,"leechers":0,"uploader":"xxxlavalxxx","files":3,"time":1369263031,"description":"\n\n\n &lt;a href=&quot;\nhttp://www.imdb.com/title/tt2226178/&quot; rel=&quot;nofollow&quot; target=&quot;_NEW&quot;&gt;\nhttp://www.imdb.com/title/tt2226178/&lt;/a&gt;\n\n\nAn animated version of the classic Rudyard Kipling book about a boy who grows up in the jungle. \n\n\n\nDirectors:\n Jun Falkenstein, Kevin Johnson \n\nWriters:\n Billy Frolick (screenplay), Rudyard Kipling (novel) \n\nGenres:\n  Animation \n\nCountry:\n India \n\nLanguage:\n English \n\n\n\n\nFormat                                   : AVI\nFormat/Info                              : Audio Video Interleave\nFile size                                : 698 MiB\nDuration                                 : 1h 2mn\nOverall bit rate mode                    : Variable\nOverall bit rate                         : 1 552 Kbps\nWriting application                      : VirtualDubMod 1.5.10.2 (build 2540/release)\nWriting library                          : VirtualDubMod build 2540/release\n\nVideo\nID                                       : 0\nFormat                                   : MPEG-4 Visual\nFormat profile                           : Advanced Simple@L5\nFormat settings, BVOP                    : 2\nFormat settings, QPel                    : No\nFormat settings, GMC                     : No warppoints\nFormat settings, Matrix                  : Default (H.263)\nMuxing mode                              : Packed bitstream\nCodec ID                                 : XVID\nCodec ID/Hint                            : XviD\nDuration                                 : 1h 2mn\nBit rate                                 : 1 415 Kbps\nWidth                                    : 640 pixels\nHeight                                   : 352 pixels\nDisplay aspect ratio                     : 16:9\nFrame rate                               : 23.976 fps\nColor space                              : YUV\nChroma subsampling                       : 4:2:0\nBit depth                                : 8 bits\nScan type                                : Progressive\nCompression mode                         : Lossy\nBits/(Pixel*Frame)                       : 0.262\nStream size                              : 636 MiB (91%)\nWriting library                          : XviD 64\n\nAudio\nID                                       : 1\nFormat                                   : MPEG Audio\nFormat version                           : Version 1\nFormat profile                           : Layer 3\nMode                                     : Joint stereo\nMode extension                           : MS Stereo\nCodec ID                                 : 55\nCodec ID/Hint                            : MP3\nDuration                                 : 1h 2mn\nBit rate mode                            : Variable\nBit rate                                 : 128 Kbps\nChannel(s)                               : 2 channels\nSampling rate                            : 48.0 KHz\nCompression mode                         : Lossy\nStream size                              : 55.6 MiB (8%)\nAlignment                                : Aligned on interleaves\nInterleave, duration                     : 24 ms (0.58 video frame)\nInterleave, preload duration             : 149 ms\nWriting library                          : LAME3.98r\nEncoding settings                        : -m j -V 4 -q 2 -lowpass 17 --abr 128\n\n\n\n\n\n    &lt;a href=&quot;\thttp://addpix.net/viewer.php?file=11399767488050426060.jpg&quot; rel=&quot;nofollow&quot; target=&quot;_NEW&quot;&gt;\thttp://addpix.net/viewer.php?file=11399767488050426060.jpg&lt;/a&gt;\n    &lt;a href=&quot;\thttp://addpix.net/viewer.php?file=48792965100852949059.jpg&quot; rel=&quot;nofollow&quot; target=&quot;_NEW&quot;&gt;\thttp://addpix.net/viewer.php?file=48792965100852949059.jpg&lt;/a&gt;\n    &lt;a href=&quot;\thttp://addpix.net/viewer.php?file=64791521477945952840.jpg&quot; rel=&quot;nofollow&quot; target=&quot;_NEW&quot;&gt;\thttp://addpix.net/viewer.php?file=64791521477945952840.jpg&lt;/a&gt;\n    &lt;a href=&quot;\thttp://addpix.net/viewer.php?file=26243693308681819614.jpg&quot; rel=&quot;nofollow&quot; target=&quot;_NEW&quot;&gt;\thttp://addpix.net/viewer.php?file=26243693308681819614.jpg&lt;/a&gt;\n    &lt;a href=&quot;\thttp://addpix.net/viewer.php?file=39077927268302363950.jpg&quot; rel=&quot;nofollow&quot; target=&quot;_NEW&quot;&gt;\thttp://addpix.net/viewer.php?file=39077927268302363950.jpg&lt;/a&gt;","torrent":{"xt":"urn:btih:1d612679d05bc26f3e08a3f369bbd158ef32b111","amp;dn":"The.Jungle.Book.2013.DVDRip.XviD-RedBlade","amp;tr":["udp%3A%2F%2Ftracker.openbittorrent.com%3A80","udp%3A%2F%2Fopen.demonii.com%3A1337","udp%3A%2F%2Ftracker.coppersurfer.tk%3A6969","udp%3A%2F%2Fexodus.desync.com%3A6969"],"infoHash":"1d612679d05bc26f3e08a3f369bbd158ef32b111","infoHashBuffer":{"type":"Buffer","data":[29,97,38,121,208,91,194,111,62,8,163,243,105,187,209,88,239,50,177,17]},"announce":[],"urlList":[]}}